<?xml version="1.0" encoding="UTF-8" ?>
<!DOCTYPE svg PUBLIC "-//W3C//DTD SVG 1.1//EN" "http://www.w3.org/Graphics/SVG/1.1/DTD/svg11.dtd">
<svg width="280pt" height="138pt" viewBox="0 0 280 138" version="1.1" xmlns="http://www.w3.org/2000/svg">
<g id="#ffffffff">
</g>
<g id="#0061a2ff">
<path fill="#0061a2" opacity="1.00" d=" M 71.97 27.08 C 72.83 27.05 74.56 26.98 75.43 26.94 C 75.46 38.64 75.43 50.34 75.44 62.03 C 74.59 62.06 72.91 62.10 72.06 62.13 C 71.86 50.45 71.86 38.76 71.97 27.08 Z" />
<path fill="#0061a2" opacity="1.00" d=" M 163.49 26.97 C 164.31 26.97 165.95 26.99 166.77 27.00 C 166.76 31.98 166.81 36.96 166.71 41.95 C 168.68 39.86 170.90 37.71 173.86 37.19 C 178.64 35.85 184.27 39.09 184.98 44.12 C 185.92 50.07 185.25 56.13 185.44 62.13 C 184.55 62.07 182.77 61.94 181.88 61.88 C 181.60 55.78 182.57 49.52 181.29 43.52 C 178.53 37.50 169.04 40.05 167.55 45.81 C 166.23 51.10 166.95 56.64 166.78 62.03 C 165.95 62.05 164.29 62.10 163.47 62.12 C 163.46 50.40 163.43 38.68 163.49 26.97 Z" />
<path fill="#0061a2" opacity="1.00" d=" M 14.23 27.97 C 15.32 27.98 16.41 27.99 17.50 28.01 C 17.62 36.32 17.28 44.64 17.67 52.94 C 17.59 59.02 25.94 62.16 30.26 58.28 C 32.81 56.35 33.20 52.96 33.22 49.99 C 33.26 42.65 33.18 35.31 33.23 27.97 C 34.32 27.98 35.41 27.99 36.50 28.01 C 36.49 35.36 36.53 42.71 36.50 50.06 C 36.49 53.85 35.79 58.09 32.62 60.57 C 26.74 66.06 14.86 62.34 14.45 53.89 C 13.94 45.26 14.34 36.61 14.23 27.97 Z" />
<path fill="#0061a2" opacity="1.00" d=" M 44.49 37.01 C 45.59 37.00 46.69 36.98 47.79 36.97 C 47.76 38.01 47.72 40.10 47.70 41.14 C 50.34 38.27 54.19 36.49 58.14 36.98 C 62.28 37.27 65.79 40.86 66.11 44.98 C 66.75 50.67 66.32 56.41 66.44 62.13 C 65.54 62.07 63.75 61.94 62.86 61.88 C 62.79 55.75 63.43 49.50 62.35 43.44 C 59.53 37.50 50.13 40.07 48.57 45.76 C 47.20 51.06 47.96 56.62 47.78 62.04 C 46.67 62.06 45.57 62.09 44.46 62.11 C 44.47 53.74 44.42 45.38 44.49 37.01 Z" />
<path fill="#0061a2" opacity="1.00" d=" M 85.32 40.34 C 90.67 35.08 100.62 35.98 104.82 42.25 C 106.60 44.45 106.89 47.35 107.33 50.04 C 99.71 50.20 92.09 50.02 84.46 50.15 C 85.15 52.60 85.75 55.35 87.96 56.91 C 92.73 60.76 100.42 59.05 103.65 53.99 C 104.34 54.35 105.71 55.08 106.40 55.44 C 102.12 63.54 89.08 64.59 83.79 57.05 C 79.99 52.14 80.70 44.48 85.32 40.34 M 84.83 46.82 C 91.13 47.07 97.44 47.00 103.74 46.82 C 102.22 42.83 98.40 39.78 94.00 40.08 C 89.74 39.88 86.29 43.04 84.83 46.82 Z" />
<path fill="#0061a2" opacity="1.00" d=" M 114.92 40.88 C 119.93 35.53 129.49 35.58 134.29 41.19 C 134.27 40.13 134.23 38.02 134.21 36.96 C 135.31 36.98 136.40 36.99 137.50 37.01 C 137.50 45.36 137.50 53.70 137.50 62.04 C 136.40 62.06 135.30 62.08 134.20 62.10 C 134.22 61.08 134.27 59.05 134.29 58.03 C 129.28 63.38 119.86 63.54 114.85 58.12 C 110.19 53.61 110.21 45.33 114.92 40.88 M 121.41 40.56 C 115.39 42.24 112.55 50.34 116.73 55.18 C 121.02 61.16 131.59 59.76 133.89 52.69 C 136.91 45.43 128.53 37.64 121.41 40.56 Z" />
<path fill="#0061a2" opacity="1.00" d=" M 143.79 45.99 C 142.21 42.43 144.34 38.05 148.14 37.17 C 151.59 36.01 154.57 38.56 157.10 40.51 C 156.44 41.31 155.79 42.11 155.14 42.92 C 153.23 41.54 151.03 39.23 148.43 40.36 C 146.28 40.99 145.40 44.07 147.27 45.50 C 150.31 48.26 155.50 48.83 157.00 53.10 C 158.63 57.55 154.43 62.16 149.99 62.15 C 146.87 62.34 144.22 60.49 142.07 58.44 C 142.76 57.65 143.46 56.86 144.16 56.08 C 145.84 57.39 147.56 59.30 149.92 58.99 C 152.45 58.81 155.02 56.01 153.48 53.48 C 150.84 50.29 145.61 50.02 143.79 45.99 Z" />
<path fill="#0061a2" opacity="1.00" d=" M 128.88 73.87 C 129.12 72.28 130.44 71.72 131.92 71.96 C 179.64 71.97 227.36 71.95 275.08 71.97 C 276.30 72.00 277.45 72.34 278.50 73.01 C 277.13 73.81 275.59 74.22 274.01 74.10 C 229.99 74.07 185.98 74.10 141.97 74.09 C 137.60 74.06 133.23 74.23 128.88 73.87 Z" />
<path fill="#0061a2" opacity="1.00" d=" M 172.67 86.97 C 173.23 84.60 175.72 83.80 177.88 83.78 C 180.34 85.30 181.95 89.10 179.15 91.14 C 176.49 93.96 171.45 90.50 172.67 86.97 Z" />
<path fill="#0061a2" opacity="1.00" d=" M 85.82 84.97 C 92.15 85.17 98.97 84.06 104.82 87.07 C 115.09 93.26 115.46 110.95 105.10 117.23 C 99.11 120.15 92.19 118.83 85.77 119.11 C 85.77 107.73 85.68 96.35 85.82 84.97 M 92.32 91.06 C 92.29 98.36 92.33 105.66 92.29 112.96 C 96.08 112.92 100.60 113.58 103.48 110.51 C 107.18 106.11 107.20 98.92 103.66 94.42 C 100.97 90.98 96.26 91.07 92.32 91.06 Z" />
<path fill="#0061a2" opacity="1.00" d=" M 122.11 96.24 C 128.03 92.10 137.43 93.56 141.21 99.92 C 143.01 102.60 143.16 105.93 143.42 109.05 C 136.59 109.24 129.76 108.97 122.94 109.24 C 125.23 113.11 130.32 113.83 134.24 112.21 C 136.82 110.70 139.30 112.84 141.66 113.77 C 136.62 120.35 125.72 121.07 120.00 115.04 C 114.85 109.87 115.97 100.16 122.11 96.24 M 123.33 103.81 C 127.91 104.03 132.50 104.01 137.08 103.71 C 133.90 98.97 126.36 98.83 123.33 103.81 Z" />
<path fill="#0061a2" opacity="1.00" d=" M 145.40 93.97 C 147.57 93.97 149.74 93.97 151.92 93.98 C 154.00 98.77 155.80 103.69 158.23 108.32 C 160.30 103.59 162.34 98.85 164.31 94.08 C 166.48 94.01 168.67 93.96 170.85 93.96 C 167.36 102.36 163.68 110.68 160.20 119.08 C 158.81 119.09 157.42 119.09 156.04 119.10 C 152.55 110.70 148.90 102.36 145.40 93.97 Z" />
<path fill="#0061a2" opacity="1.00" d=" M 173.45 93.97 C 175.55 93.94 177.65 93.93 179.76 93.94 C 179.76 102.31 179.74 110.69 179.77 119.06 C 177.66 119.08 175.55 119.09 173.44 119.09 C 173.47 110.72 173.47 102.34 173.45 93.97 Z" />
<path fill="#0061a2" opacity="1.00" d=" M 193.06 95.08 C 199.23 92.40 206.79 94.40 210.78 99.83 C 209.05 100.92 207.31 101.99 205.57 103.04 C 202.54 99.50 196.64 98.96 193.20 102.18 C 190.31 104.68 190.77 109.95 194.16 111.79 C 197.81 114.07 202.64 113.01 205.60 110.08 C 207.19 111.25 208.79 112.42 210.40 113.59 C 204.69 121.60 190.38 120.95 186.06 111.88 C 182.76 105.62 186.45 97.28 193.06 95.08 Z" />
<path fill="#0061a2" opacity="1.00" d=" M 219.03 97.06 C 224.86 91.97 235.22 93.15 239.23 99.95 C 241.02 102.63 241.16 105.94 241.41 109.05 C 234.59 109.24 227.76 108.97 220.94 109.24 C 223.22 113.10 228.28 113.82 232.19 112.23 C 234.50 110.95 237.59 112.19 239.08 114.03 C 234.59 120.50 223.97 120.77 218.43 115.47 C 213.19 110.75 213.64 101.49 219.03 97.06 M 221.33 103.81 C 225.91 104.03 230.50 104.01 235.08 103.71 C 231.90 98.96 224.36 98.83 221.33 103.81 Z" />
<path fill="#0061a2" opacity="1.00" d=" M 245.17 102.04 C 244.25 98.28 247.39 94.88 250.91 94.19 C 254.92 93.12 259.00 95.08 261.72 97.97 C 260.40 99.30 259.09 100.62 257.78 101.95 C 256.14 99.92 251.69 97.15 250.98 101.31 C 255.01 103.55 260.92 105.05 261.80 110.32 C 262.76 114.92 258.49 118.79 254.16 119.09 C 250.35 119.57 246.66 117.85 244.06 115.13 C 245.32 113.78 246.59 112.45 247.87 111.12 C 249.81 112.54 252.11 114.84 254.72 113.62 C 256.26 113.33 255.97 110.93 254.71 110.39 C 251.30 108.03 245.77 106.92 245.17 102.04 Z" />
</g>
</svg>
